<svg xmlns="http://www.w3.org/2000/svg" viewBox="0 0 1028 478" width="1028" height="478" role="img"><title>miam · Créateur de site internet, menu et motion design</title><defs><linearGradient id="miam-degrade" gradientUnits="userSpaceOnUse" x1="-93.0" y1="103.6" x2="1121.0" y2="317.6" spreadMethod="reflect"><stop offset="0" stop-color="#ff6a36"/><stop offset="0.38" stop-color="#ffbf2e"/><stop offset="0.62" stop-color="#ec4b27"/><stop offset="1" stop-color="#8452f2"/></linearGradient></defs><rect width="100%" height="100%" fill="#fff6ea"/><g fill="url(#miam-degrade)"><path d="M64 351.6V234.4V140.4H118.8V226.4H122Q124.8 192.8 133 172.8Q141.2 152.8 155 143.8Q168.8 134.8 188 134.8Q208 134.8 220.4 144.6Q232.8 154.4 238.8 174.6Q244.8 194.8 244.4 226.4H247.6Q250.4 193.2 259.2 173.2Q268 153.2 282.4 144Q296.8 134.8 316.4 134.8Q332.8 134.8 344.8 140.8Q356.8 146.8 365 158.8Q373.2 170.8 377.2 189Q381.2 207.2 381.2 231.6V351.6H316.4V237.2Q316.4 222 313.8 211.8Q311.2 201.6 306 196.6Q300.8 191.6 292.8 191.6Q282.4 191.6 273.6 201Q264.8 210.4 259.4 229.2Q254 248 254 276.8V351.6H190.8V235.6Q190.8 220.4 188.2 210.8Q185.6 201.2 180.2 196.4Q174.8 191.6 166.8 191.6Q156.8 191.6 148.2 199.8Q139.6 208 134.2 226.8Q128.8 245.6 128.8 276.8V351.6Z M384 351.6V140.4H448.8V351.6ZM416 125.2Q397.6 125.2 387.8 117.4Q378 109.6 378 94.8Q378 79.6 387.8 71.8Q397.6 64 416 64Q434.8 64 444.6 72Q454.4 80 454.4 94.8Q454.4 109.2 444.6 117.2Q434.8 125.2 416 125.2Z M509.2 357.2Q493.2 357.2 478.8 351.6Q464.4 346 455.2 333.4Q446 320.8 446 299.6Q446 280 453.6 267.8Q461.2 255.6 474 248.2Q486.8 240.8 502 237Q517.2 233.2 532 230.4Q552.8 226.4 563.2 224Q573.6 221.6 577.4 218.4Q581.2 215.2 581.2 209.6Q581.2 198 572.6 192Q564 186 550 186Q541.2 186 532.4 189.2Q523.6 192.4 518 200.6Q512.4 208.8 512.8 224L455.2 220Q454.4 194.8 462.8 178.2Q471.2 161.6 485.8 152.2Q500.4 142.8 517.8 138.8Q535.2 134.8 552.4 134.8Q584 134.8 604.4 146.6Q624.8 158.4 634.6 180.6Q644.4 202.8 644.4 234.4V272Q644.4 285.2 644.4 298.6Q644.4 312 644.4 325.2Q644.4 338.4 644.4 351.6H588.4Q588.4 337.2 588.4 322.4Q588.4 307.6 588.4 291.2H586Q584.4 309.2 574.2 324.2Q564 339.2 547.4 348.2Q530.8 357.2 509.2 357.2ZM536 310Q542.8 310 550.6 307.4Q558.4 304.8 565.4 298.8Q572.4 292.8 576.8 282.2Q581.2 271.6 581.2 256V246.4L592 245.2Q588.8 250.4 581.4 253.6Q574 256.8 564.8 258.6Q555.6 260.4 546.2 262.2Q536.8 264 528.8 267Q520.8 270 515.8 275Q510.8 280 510.8 288.8Q510.8 299.2 518.2 304.6Q525.6 310 536 310Z M646.8 351.6V234.4V140.4H701.6V226.4H704.8Q707.6 192.8 715.8 172.8Q724 152.8 737.8 143.8Q751.6 134.8 770.8 134.8Q790.8 134.8 803.2 144.6Q815.6 154.4 821.6 174.6Q827.6 194.8 827.2 226.4H830.4Q833.2 193.2 842 173.2Q850.8 153.2 865.2 144Q879.6 134.8 899.2 134.8Q915.6 134.8 927.6 140.8Q939.6 146.8 947.8 158.8Q956 170.8 960 189Q964 207.2 964 231.6V351.6H899.2V237.2Q899.2 222 896.6 211.8Q894 201.6 888.8 196.6Q883.6 191.6 875.6 191.6Q865.2 191.6 856.4 201Q847.6 210.4 842.2 229.2Q836.8 248 836.8 276.8V351.6H773.6V235.6Q773.6 220.4 771 210.8Q768.4 201.2 763 196.4Q757.6 191.6 749.6 191.6Q739.6 191.6 731 199.8Q722.4 208 717 226.8Q711.6 245.6 711.6 276.8V351.6Z"/></g><path fill="#24130d" d="M83.12 407.22Q82.88 409.37 81.63 411.01Q80.37 412.64 78.33 413.55Q76.29 414.45 73.67 414.45Q70.78 414.45 68.6 413.35Q66.42 412.24 65.21 410.26Q64 408.28 64 405.66Q64 403.03 65.21 401.05Q66.42 399.07 68.6 397.96Q70.78 396.86 73.67 396.86Q76.29 396.86 78.33 397.76Q80.37 398.67 81.63 400.3Q82.88 401.92 83.12 404.09H79.27Q79.04 402.88 78.3 402.01Q77.56 401.15 76.38 400.68Q75.21 400.21 73.66 400.21Q71.87 400.21 70.58 400.87Q69.28 401.53 68.57 402.75Q67.87 403.98 67.87 405.66Q67.87 407.33 68.57 408.55Q69.28 409.78 70.58 410.44Q71.87 411.1 73.66 411.1Q75.21 411.1 76.38 410.65Q77.56 410.19 78.3 409.32Q79.04 408.45 79.27 407.22Z M90.98 404.71H97.5Q98.8 404.71 99.55 404.11Q100.3 403.52 100.3 402.46Q100.3 401.4 99.55 400.81Q98.8 400.22 97.5 400.22H90.44L92.15 398.27V414.11H88.32V397.2H97.96Q99.81 397.2 101.21 397.86Q102.6 398.53 103.39 399.7Q104.17 400.88 104.17 402.46Q104.17 404.01 103.39 405.19Q102.6 406.37 101.21 407.03Q99.81 407.68 97.96 407.68H90.98ZM93.91 406.2H98.28L104.67 414.11H100.18Z M123.72 404.19V407.13H111.63V404.19ZM114.2 405.66 113.05 412.83 111.4 410.93H124.43V414.11H109.2L110.52 405.66L109.2 397.2H124.32V400.38H111.4L113.05 398.48ZM117.77 392.27H122.12L118.31 395.89H114.46Z M132.48 410.54V407.44H144.21V410.54ZM140.9 397.2 148.8 414.11H144.72L137.8 398.76H139.06L132.14 414.11H128.06L135.96 397.2Z M155.87 398.91H159.7V414.11H155.87ZM149.15 397.2H166.42V400.59H149.15Z M185.23 404.19V407.13H173.14V404.19ZM175.71 405.66 174.57 412.83 172.91 410.93H185.94V414.11H170.71L172.03 405.66L170.71 397.2H185.83V400.38H172.91L174.57 398.48Z M195.15 406.7Q195.15 408.04 195.68 409.01Q196.2 409.98 197.2 410.51Q198.2 411.04 199.62 411.04Q201.07 411.04 202.06 410.51Q203.05 409.99 203.57 409.01Q204.09 408.04 204.09 406.7V397.2H207.92V406.88Q207.92 409.15 206.88 410.85Q205.84 412.56 203.98 413.5Q202.12 414.45 199.62 414.45Q197.15 414.45 195.28 413.5Q193.41 412.56 192.37 410.85Q191.32 409.15 191.32 406.88V397.2H195.15Z M216.53 404.71H223.05Q224.34 404.71 225.09 404.11Q225.84 403.52 225.84 402.46Q225.84 401.4 225.09 400.81Q224.34 400.22 223.05 400.22H215.98L217.7 398.27V414.11H213.87V397.2H223.51Q225.36 397.2 226.76 397.86Q228.15 398.53 228.94 399.7Q229.72 400.88 229.72 402.46Q229.72 404.01 228.94 405.19Q228.15 406.37 226.76 407.03Q225.36 407.68 223.51 407.68H216.53ZM219.46 406.2H223.83L230.22 414.11H225.73Z M251.81 397.2Q254.76 397.2 256.98 398.26Q259.19 399.31 260.43 401.21Q261.67 403.12 261.67 405.66Q261.67 408.19 260.43 410.09Q259.19 412 256.98 413.05Q254.76 414.11 251.81 414.11H243.77V397.2ZM247.59 412.61 245.65 410.72H252.09Q253.82 410.72 255.1 410.09Q256.39 409.46 257.09 408.32Q257.8 407.18 257.8 405.66Q257.8 404.11 257.09 402.98Q256.39 401.85 255.1 401.22Q253.82 400.59 252.09 400.59H245.65L247.59 398.7Z M280.82 404.19V407.13H268.72V404.19ZM271.29 405.66 270.15 412.83 268.49 410.93H281.52V414.11H266.29L267.61 405.66L266.29 397.2H281.41V400.38H268.49L270.15 398.48Z M294.71 408.59H298.6Q298.72 409.45 299.35 410.09Q299.97 410.73 301.02 411.08Q302.06 411.43 303.45 411.43Q305.45 411.43 306.6 410.85Q307.76 410.27 307.76 409.24Q307.76 408.42 307.1 407.99Q306.43 407.56 304.63 407.36L301.23 406.97Q297.94 406.61 296.46 405.42Q294.99 404.23 294.99 402.11Q294.99 400.46 295.97 399.28Q296.95 398.1 298.73 397.48Q300.51 396.86 302.91 396.86Q305.27 396.86 307.09 397.54Q308.91 398.23 310 399.46Q311.08 400.69 311.18 402.34H307.29Q307.19 401.59 306.63 401.04Q306.07 400.5 305.11 400.19Q304.15 399.88 302.83 399.88Q301 399.88 299.92 400.43Q298.84 400.98 298.84 401.97Q298.84 402.71 299.48 403.13Q300.12 403.55 301.75 403.75L305.29 404.18Q307.63 404.45 309.01 404.99Q310.4 405.53 311 406.46Q311.61 407.39 311.61 408.81Q311.61 410.51 310.58 411.78Q309.56 413.06 307.71 413.75Q305.85 414.45 303.38 414.45Q300.85 414.45 298.93 413.72Q297 412.98 295.9 411.66Q294.79 410.34 294.71 408.59Z M316.87 397.2H320.7V414.11H316.87Z M332.24 398.91H336.07V414.11H332.24ZM325.52 397.2H342.79V400.59H325.52Z M361.61 404.19V407.13H349.51V404.19ZM352.08 405.66 350.94 412.83 349.28 410.93H362.31V414.11H347.08L348.4 405.66L347.08 397.2H362.2V400.38H349.28L350.94 398.48Z M376.4 397.2H380.23V414.11H376.4Z M402.06 411.58 400.73 411.79V397.2H404.44V414.11H399.61L388.79 399.53L390.1 399.32V414.11H386.39V397.2H391.35Z M415.99 398.91H419.82V414.11H415.99ZM409.27 397.2H426.53V400.59H409.27Z M445.35 404.19V407.13H433.26V404.19ZM435.83 405.66 434.68 412.83 433.02 410.93H446.06V414.11H430.83L432.14 405.66L430.83 397.2H445.95V400.38H433.02L434.68 398.48Z M454.32 404.71H460.84Q462.14 404.71 462.89 404.11Q463.64 403.52 463.64 402.46Q463.64 401.4 462.89 400.81Q462.14 400.22 460.84 400.22H453.78L455.49 398.27V414.11H451.66V397.2H461.3Q463.15 397.2 464.55 397.86Q465.95 398.53 466.73 399.7Q467.51 400.88 467.51 402.46Q467.51 404.01 466.73 405.19Q465.95 406.37 464.55 407.03Q463.15 407.68 461.3 407.68H454.32ZM457.25 406.2H461.63L468.01 414.11H463.52Z M488.76 411.58 487.43 411.79V397.2H491.14V414.11H486.31L475.49 399.53L476.8 399.32V414.11H473.09V397.2H478.05Z M511.28 404.19V407.13H499.19V404.19ZM501.76 405.66 500.61 412.83 498.95 410.93H511.99V414.11H496.76L498.08 405.66L496.76 397.2H511.88V400.38H498.95L500.61 398.48Z M522.73 398.91H526.56V414.11H522.73ZM516.01 397.2H533.28V400.59H516.01Z M534.36 417.34 536.45 412.88 536.66 414.26Q536.04 414.26 535.53 413.96Q535.03 413.67 534.73 413.17Q534.44 412.67 534.44 412.07Q534.44 411.45 534.73 410.96Q535.03 410.47 535.53 410.18Q536.04 409.89 536.66 409.89Q537.3 409.89 537.8 410.19Q538.3 410.48 538.59 410.99Q538.88 411.5 538.88 412.14Q538.88 412.74 538.6 413.42Q538.32 414.09 537.64 415.15L536.29 417.34Z M575.99 397.2V414.11H572.34V398.49L573.31 398.56L566.1 414.11H562.15L554.93 398.6L555.9 398.52V414.11H552.25V397.2H558.14L564.96 412.27H563.31L570.1 397.2Z M596.13 404.19V407.13H584.04V404.19ZM586.61 405.66 585.46 412.83 583.8 410.93H596.84V414.11H581.61L582.92 405.66L581.61 397.2H596.73V400.38H583.8L585.46 398.48Z M618.12 411.58 616.79 411.79V397.2H620.5V414.11H615.66L604.85 399.53L606.16 399.32V414.11H602.44V397.2H607.41Z M630.26 406.7Q630.26 408.04 630.79 409.01Q631.31 409.98 632.31 410.51Q633.31 411.04 634.74 411.04Q636.18 411.04 637.17 410.51Q638.17 409.99 638.69 409.01Q639.21 408.04 639.21 406.7V397.2H643.04V406.88Q643.04 409.15 641.99 410.85Q640.95 412.56 639.09 413.5Q637.23 414.45 634.74 414.45Q632.26 414.45 630.39 413.5Q628.53 412.56 627.48 410.85Q626.44 409.15 626.44 406.88V397.2H630.26Z M671.44 404.19V407.13H659.35V404.19ZM661.92 405.66 660.77 412.83 659.11 410.93H672.15V414.11H656.92L658.24 405.66L656.92 397.2H672.04V400.38H659.11L660.77 398.48Z M682.89 398.91H686.72V414.11H682.89ZM676.17 397.2H693.44V400.59H676.17Z M729.75 397.2V414.11H726.1V398.49L727.07 398.56L719.85 414.11H715.9L708.69 398.6L709.65 398.52V414.11H706.01V397.2H711.9L718.71 412.27H717.07L723.86 397.2Z M744.96 414.45Q742.01 414.45 739.79 413.35Q737.56 412.24 736.32 410.26Q735.09 408.28 735.09 405.66Q735.09 403.03 736.32 401.05Q737.56 399.07 739.79 397.96Q742.01 396.86 744.96 396.86Q747.9 396.86 750.13 397.96Q752.35 399.07 753.59 401.05Q754.83 403.03 754.83 405.66Q754.83 408.28 753.59 410.26Q752.35 412.24 750.13 413.35Q747.9 414.45 744.96 414.45ZM744.96 411.04Q746.81 411.04 748.15 410.38Q749.49 409.73 750.22 408.52Q750.96 407.31 750.96 405.66Q750.96 404 750.22 402.79Q749.49 401.58 748.15 400.93Q746.81 400.28 744.96 400.28Q743.12 400.28 741.78 400.93Q740.43 401.58 739.7 402.79Q738.96 404 738.96 405.66Q738.96 407.31 739.7 408.52Q740.43 409.73 741.78 410.38Q743.12 411.04 744.96 411.04Z M764.76 398.91H768.59V414.11H764.76ZM758.04 397.2H775.31V400.59H758.04Z M780.15 397.2H783.98V414.11H780.15Z M799.19 414.45Q796.24 414.45 794.01 413.35Q791.79 412.24 790.55 410.26Q789.31 408.28 789.31 405.66Q789.31 403.03 790.55 401.05Q791.79 399.07 794.01 397.96Q796.24 396.86 799.19 396.86Q802.13 396.86 804.36 397.96Q806.58 399.07 807.82 401.05Q809.06 403.03 809.06 405.66Q809.06 408.28 807.82 410.26Q806.58 412.24 804.36 413.35Q802.13 414.45 799.19 414.45ZM799.19 411.04Q801.04 411.04 802.37 410.38Q803.71 409.73 804.45 408.52Q805.18 407.31 805.18 405.66Q805.18 404 804.45 402.79Q803.71 401.58 802.37 400.93Q801.04 400.28 799.19 400.28Q797.35 400.28 796.01 400.93Q794.66 401.58 793.92 402.79Q793.19 404 793.19 405.66Q793.19 407.31 793.92 408.52Q794.66 409.73 796.01 410.38Q797.35 411.04 799.19 411.04Z M830.07 411.58 828.74 411.79V397.2H832.45V414.11H827.62L816.8 399.53L818.11 399.32V414.11H814.4V397.2H819.36Z M855.14 397.2Q858.08 397.2 860.3 398.26Q862.52 399.31 863.75 401.21Q864.99 403.12 864.99 405.66Q864.99 408.19 863.75 410.09Q862.52 412 860.3 413.05Q858.08 414.11 855.14 414.11H847.09V397.2ZM850.91 412.61 848.97 410.72H855.41Q857.14 410.72 858.43 410.09Q859.71 409.46 860.41 408.32Q861.12 407.18 861.12 405.66Q861.12 404.11 860.41 402.98Q859.71 401.85 858.43 401.22Q857.14 400.59 855.41 400.59H848.97L850.91 398.7Z M884.14 404.19V407.13H872.05V404.19ZM874.62 405.66 873.47 412.83 871.81 410.93H884.85V414.11H869.61L870.93 405.66L869.61 397.2H884.73V400.38H871.81L873.47 398.48Z M889.56 408.59H893.44Q893.57 409.45 894.19 410.09Q894.82 410.73 895.86 411.08Q896.91 411.43 898.29 411.43Q900.29 411.43 901.45 410.85Q902.61 410.27 902.61 409.24Q902.61 408.42 901.94 407.99Q901.28 407.56 899.47 407.36L896.08 406.97Q892.79 406.61 891.31 405.42Q889.83 404.23 889.83 402.11Q889.83 400.46 890.81 399.28Q891.79 398.1 893.57 397.48Q895.36 396.86 897.75 396.86Q900.11 396.86 901.93 397.54Q903.76 398.23 904.84 399.46Q905.92 400.69 906.02 402.34H902.13Q902.03 401.59 901.47 401.04Q900.91 400.5 899.95 400.19Q898.99 399.88 897.67 399.88Q895.85 399.88 894.77 400.43Q893.69 400.98 893.69 401.97Q893.69 402.71 894.32 403.13Q894.96 403.55 896.6 403.75L900.13 404.18Q902.47 404.45 903.86 404.99Q905.24 405.53 905.85 406.46Q906.45 407.39 906.45 408.81Q906.45 410.51 905.43 411.78Q904.4 413.06 902.55 413.75Q900.7 414.45 898.22 414.45Q895.69 414.45 893.77 413.72Q891.85 412.98 890.74 411.66Q889.63 410.34 889.56 408.59Z M911.72 397.2H915.54V414.11H911.72Z M938.83 406.77Q938.79 408.33 938.22 409.71Q937.65 411.1 936.59 412.17Q935.52 413.24 933.97 413.85Q932.41 414.45 930.37 414.45Q928.38 414.45 926.66 413.86Q924.93 413.26 923.64 412.13Q922.34 411 921.63 409.37Q920.91 407.73 920.91 405.66Q920.91 403.58 921.63 401.95Q922.36 400.31 923.67 399.18Q924.98 398.05 926.74 397.45Q928.5 396.86 930.58 396.86Q933.27 396.86 935.26 397.71Q937.26 398.56 938.47 400.04Q939.69 401.52 940 403.44H936.14Q935.9 402.42 935.15 401.67Q934.39 400.92 933.24 400.52Q932.08 400.12 930.58 400.12Q928.8 400.12 927.49 400.76Q926.19 401.41 925.48 402.64Q924.77 403.87 924.77 405.66Q924.77 407.45 925.51 408.71Q926.26 409.97 927.64 410.63Q929.02 411.28 930.9 411.28Q932.71 411.28 934.09 410.71Q935.46 410.14 936.26 409.09Q937.07 408.04 937.17 406.6ZM931.42 408.35V405.57H940.17V414.11H937.41L936.9 407.26L937.7 408.35Z M961.61 411.58 960.29 411.79V397.2H964V414.11H959.16L948.34 399.53L949.65 399.32V414.11H945.94V397.2H950.91Z"/></svg>